<?xml version="1.0" encoding="utf-8"?>
<svg xmlns="http://www.w3.org/2000/svg" viewBox="0 0 1000 207.8">
  <defs>
    <style>.cls-1{fill:url(#linear-gradient);}.cls-2{fill:url(#linear-gradient-2);}.cls-3{fill:#080100;}</style>
    <linearGradient id="linear-gradient" x1="55.09" y1="178.48" x2="114.05" y2="76.37" gradientUnits="userSpaceOnUse">
      <stop offset="0" stop-color="#004186"/>
      <stop offset="1" stop-color="#449b51"/>
    </linearGradient>
    <linearGradient id="linear-gradient-2" x1="80.15" y1="145.09" x2="119.36" y2="77.17" href="#linear-gradient"/>
  </defs>
  <g id="Camada_2" data-name="Camada 2">
    <g id="Layer_1" data-name="Layer 1">
      <path d="M301.56,168.5v29.88h-2.7v-4.84a8.82,8.82,0,0,1-3.38,3.69,9.67,9.67,0,0,1-5.07,1.31,10.36,10.36,0,0,1-5.32-1.37,9.35,9.35,0,0,1-3.62-3.83,11.74,11.74,0,0,1-1.29-5.55,11.43,11.43,0,0,1,1.31-5.52,9.71,9.71,0,0,1,3.62-3.79,10.18,10.18,0,0,1,5.26-1.36,9.68,9.68,0,0,1,5.09,1.32,9,9,0,0,1,3.4,3.71V168.5ZM295,195.13a7.53,7.53,0,0,0,2.84-2.95,9.66,9.66,0,0,0,0-8.64,7.6,7.6,0,0,0-2.84-3,7.93,7.93,0,0,0-11.08,3,9.57,9.57,0,0,0,0,8.64,7.51,7.51,0,0,0,2.86,2.95,8,8,0,0,0,4.13,1.07A7.88,7.88,0,0,0,295,195.13Z" style="fill: rgb(255, 255, 255);"/>
      <path d="M328.78,180.32q2.58,3.12,2.38,8.39h-17.6a8.09,8.09,0,0,0,2.5,5.46,7.72,7.72,0,0,0,5.48,2.07,9.62,9.62,0,0,0,3.74-.72,8.66,8.66,0,0,0,3-2.06l1.53,1.53a10.51,10.51,0,0,1-3.68,2.56,12.21,12.21,0,0,1-4.74.91,10.78,10.78,0,0,1-5.43-1.35,9.66,9.66,0,0,1-3.73-3.77,12,12,0,0,1,0-11,9.62,9.62,0,0,1,3.73-3.78,10.63,10.63,0,0,1,5.35-1.35Q326.21,177.2,328.78,180.32Zm0,6.3a7.72,7.72,0,0,0-2.19-5.26,7.15,7.15,0,0,0-5.22-2,7.54,7.54,0,0,0-5.31,2,8,8,0,0,0-2.46,5.24Z" style="fill: rgb(255, 255, 255);"/>
      <path d="M348.71,179.83a10.75,10.75,0,0,0-2.93-.42,5.9,5.9,0,0,0-3.25.79,2.62,2.62,0,0,0-1.22,2.35,2.42,2.42,0,0,0,.66,1.77,4.89,4.89,0,0,0,1.65,1.11,27.1,27.1,0,0,0,2.76.95,28.73,28.73,0,0,1,3.54,1.26,6.57,6.57,0,0,1,2.34,1.82,4.8,4.8,0,0,1,1,3.12,5,5,0,0,1-2.17,4.37,9.36,9.36,0,0,1-5.44,1.51,13,13,0,0,1-4.42-.77,9.78,9.78,0,0,1-3.59-2.17l1.09-1.94a10.18,10.18,0,0,0,3.24,2,10.55,10.55,0,0,0,3.81.72,6.24,6.24,0,0,0,3.48-.88,2.89,2.89,0,0,0,1.35-2.58,2.68,2.68,0,0,0-.69-1.91,4.57,4.57,0,0,0-1.71-1.17c-.68-.28-1.63-.61-2.84-1a27.71,27.71,0,0,1-3.46-1.25,5.92,5.92,0,0,1-2.25-1.75,4.6,4.6,0,0,1-.93-3,4.72,4.72,0,0,1,2.07-4.18,9,9,0,0,1,5.18-1.41,12.8,12.8,0,0,1,3.5.48,11.2,11.2,0,0,1,3,1.33l-1,2.05A10.34,10.34,0,0,0,348.71,179.83Z" style="fill: rgb(255, 255, 255);"/>
      <path d="M378.23,180.32q2.56,3.12,2.37,8.39H363a8.09,8.09,0,0,0,2.5,5.46,7.72,7.72,0,0,0,5.48,2.07,9.62,9.62,0,0,0,3.74-.72,8.56,8.56,0,0,0,3-2.06l1.53,1.53a10.51,10.51,0,0,1-3.68,2.56,12.19,12.19,0,0,1-4.73.91,10.81,10.81,0,0,1-5.44-1.35,9.63,9.63,0,0,1-3.72-3.77,11.9,11.9,0,0,1,0-11,9.59,9.59,0,0,1,3.72-3.78,10.64,10.64,0,0,1,5.36-1.35Q375.65,177.2,378.23,180.32Zm-.05,6.3a7.72,7.72,0,0,0-2.19-5.26,7.14,7.14,0,0,0-5.21-2,7.56,7.56,0,0,0-5.32,2,8,8,0,0,0-2.46,5.24Z" style="fill: rgb(255, 255, 255);"/>
      <path d="M406.59,179.39a8.24,8.24,0,0,1,2.15,6v13H406V186.06a6.42,6.42,0,0,0-1.65-4.68,6.15,6.15,0,0,0-4.59-1.69,7.13,7.13,0,0,0-5.21,2,8.26,8.26,0,0,0-2.24,5.31v11.36h-2.7v-21.1h2.7v4.91a7.9,7.9,0,0,1,3.2-3.71,10.16,10.16,0,0,1,5.14-1.28A8,8,0,0,1,406.59,179.39Z" style="fill: rgb(255, 255, 255);"/>
      <path d="M415.2,177.28h2.89l7,18.4,6.93-18.4h2.81l-8.37,21.1h-2.86Z" style="fill: rgb(255, 255, 255);"/>
      <path d="M456,178.55a9.69,9.69,0,0,1,3.78,3.76,11,11,0,0,1,1.37,5.48,11.12,11.12,0,0,1-1.37,5.53,9.64,9.64,0,0,1-3.78,3.79,11.78,11.78,0,0,1-10.95,0,9.66,9.66,0,0,1-3.79-3.79,11.12,11.12,0,0,1-1.37-5.53,11,11,0,0,1,1.37-5.48,9.72,9.72,0,0,1,3.79-3.76,11.78,11.78,0,0,1,10.95,0Zm-9.59,2a7.3,7.3,0,0,0-2.81,2.94,8.93,8.93,0,0,0-1,4.31,9.07,9.07,0,0,0,1,4.35,7.22,7.22,0,0,0,2.81,2.93,8.57,8.57,0,0,0,8.22,0,7.24,7.24,0,0,0,2.82-2.93,9.18,9.18,0,0,0,1-4.35,9,9,0,0,0-1-4.31,7.33,7.33,0,0,0-2.82-2.94,8.57,8.57,0,0,0-8.22,0Z" style="fill: rgb(255, 255, 255);"/>
      <path d="M470.52,168.5h2.69v29.88h-2.69Z" style="fill: rgb(255, 255, 255);"/>
      <path d="M481.05,177.28H484l7,18.4,6.92-18.4h2.82l-8.37,21.1h-2.86Z" style="fill: rgb(255, 255, 255);"/>
      <path d="M511,169.85a1.86,1.86,0,0,1,.53,1.35,1.89,1.89,0,0,1-.55,1.37,1.76,1.76,0,0,1-1.3.56,1.81,1.81,0,0,1-1.35-.56,1.89,1.89,0,0,1-.55-1.37,1.8,1.8,0,0,1,.55-1.35,1.84,1.84,0,0,1,1.35-.55A1.77,1.77,0,0,1,511,169.85Zm-2.7,7.43H511v21.1h-2.7Z" style="fill: rgb(255, 255, 255);"/>
      <path d="M554.66,179.37a8.33,8.33,0,0,1,2.1,6v13H554V186.06a6.49,6.49,0,0,0-1.63-4.7,6,6,0,0,0-4.49-1.67,6.81,6.81,0,0,0-5.3,2.34,8.92,8.92,0,0,0-1.91,6v10.39H538V186.06a6.44,6.44,0,0,0-1.63-4.7,6,6,0,0,0-4.49-1.67,6.85,6.85,0,0,0-5.31,2.34,8.83,8.83,0,0,0-1.94,6v10.39h-2.7v-21.1h2.7v4.95a7.76,7.76,0,0,1,3.12-3.75,9.89,9.89,0,0,1,5.06-1.28,8.1,8.1,0,0,1,5,1.49,7.07,7.07,0,0,1,2.64,4.18,7.85,7.85,0,0,1,3.12-4.22,9.62,9.62,0,0,1,5.29-1.45A7.71,7.71,0,0,1,554.66,179.37Z" style="fill: rgb(255, 255, 255);"/>
      <path d="M583.39,180.32q2.58,3.12,2.38,8.39h-17.6a8.09,8.09,0,0,0,2.5,5.46,7.7,7.7,0,0,0,5.47,2.07,9.67,9.67,0,0,0,3.75-.72,8.66,8.66,0,0,0,3-2.06L584.4,195a10.46,10.46,0,0,1-3.69,2.56,12.12,12.12,0,0,1-4.73.91,10.78,10.78,0,0,1-5.43-1.35,9.66,9.66,0,0,1-3.73-3.77,11.9,11.9,0,0,1,0-11,9.62,9.62,0,0,1,3.73-3.78,10.61,10.61,0,0,1,5.35-1.35C579.18,177.2,581.67,178.24,583.39,180.32Zm0,6.3a7.72,7.72,0,0,0-2.19-5.26,7.15,7.15,0,0,0-5.22-2,7.54,7.54,0,0,0-5.31,2,7.91,7.91,0,0,0-2.46,5.24Z" style="fill: rgb(255, 255, 255);"/>
      <path d="M611.75,179.39a8.21,8.21,0,0,1,2.16,6v13h-2.74V186.06a6.42,6.42,0,0,0-1.65-4.68,6.15,6.15,0,0,0-4.59-1.69,7.11,7.11,0,0,0-5.21,2,8.21,8.21,0,0,0-2.24,5.31v11.36h-2.7v-21.1h2.7v4.91a7.85,7.85,0,0,1,3.2-3.71,10.15,10.15,0,0,1,5.13-1.28A7.93,7.93,0,0,1,611.75,179.39Z" style="fill: rgb(255, 255, 255);"/>
      <path d="M634.65,196.93A8.71,8.71,0,0,1,630,198.5a5,5,0,0,1-3.83-1.49,6.31,6.31,0,0,1-1.41-4.47V180h-3l0-2.09h3.06v-5.43h2.7v5.43l6.84,0V180h-6.84v12.12q0,3.91,2.9,3.91a7,7,0,0,0,3.5-1.13Z" style="fill: rgb(255, 255, 255);"/>
      <path d="M656.42,178.55a9.69,9.69,0,0,1,3.78,3.76,11,11,0,0,1,1.37,5.48,11.12,11.12,0,0,1-1.37,5.53,9.64,9.64,0,0,1-3.78,3.79,11.8,11.8,0,0,1-11,0,9.64,9.64,0,0,1-3.78-3.79,11.12,11.12,0,0,1-1.37-5.53,11,11,0,0,1,1.37-5.48,9.69,9.69,0,0,1,3.78-3.76,11.8,11.8,0,0,1,11,0Zm-9.59,2a7.26,7.26,0,0,0-2.82,2.94,9,9,0,0,0-1,4.31,9.18,9.18,0,0,0,1,4.35,7.17,7.17,0,0,0,2.82,2.93,8.57,8.57,0,0,0,8.22,0,7.22,7.22,0,0,0,2.81-2.93,9.07,9.07,0,0,0,1-4.35,8.93,8.93,0,0,0-1-4.31,7.3,7.3,0,0,0-2.81-2.94,8.57,8.57,0,0,0-8.22,0Z" style="fill: rgb(255, 255, 255);"/>
      <path d="M705.62,168.5v29.88h-2.7v-4.84a8.82,8.82,0,0,1-3.38,3.69,9.67,9.67,0,0,1-5.07,1.31,10.36,10.36,0,0,1-5.32-1.37,9.35,9.35,0,0,1-3.62-3.83,11.74,11.74,0,0,1-1.29-5.55,11.32,11.32,0,0,1,1.31-5.52,9.71,9.71,0,0,1,3.62-3.79,10.18,10.18,0,0,1,5.26-1.36,9.68,9.68,0,0,1,5.09,1.32,9,9,0,0,1,3.4,3.71V168.5Zm-6.56,26.63a7.6,7.6,0,0,0,2.84-2.95,9.66,9.66,0,0,0,0-8.64,7.67,7.67,0,0,0-2.84-3,7.93,7.93,0,0,0-11.08,3,8.83,8.83,0,0,0-1,4.33,9,9,0,0,0,1,4.31,7.51,7.51,0,0,0,2.86,2.95A8,8,0,0,0,695,196.2,7.88,7.88,0,0,0,699.06,195.13Z" style="fill: rgb(255, 255, 255);"/>
      <path d="M732.84,180.32q2.58,3.12,2.38,8.39h-17.6a8.09,8.09,0,0,0,2.5,5.46,7.7,7.7,0,0,0,5.47,2.07,9.67,9.67,0,0,0,3.75-.72,8.66,8.66,0,0,0,3-2.06l1.53,1.53a10.46,10.46,0,0,1-3.69,2.56,12.12,12.12,0,0,1-4.73.91,10.78,10.78,0,0,1-5.43-1.35,9.66,9.66,0,0,1-3.73-3.77,11.9,11.9,0,0,1,0-11,9.62,9.62,0,0,1,3.73-3.78,10.63,10.63,0,0,1,5.35-1.35C728.63,177.2,731.12,178.24,732.84,180.32Zm0,6.3a7.72,7.72,0,0,0-2.19-5.26,7.15,7.15,0,0,0-5.22-2,7.54,7.54,0,0,0-5.31,2,7.91,7.91,0,0,0-2.46,5.24Z" style="fill: rgb(255, 255, 255);"/>
      <path d="M768.19,179.83a10.77,10.77,0,0,0-2.94-.42,5.89,5.89,0,0,0-3.24.79,2.6,2.6,0,0,0-1.23,2.35,2.43,2.43,0,0,0,.67,1.77,4.89,4.89,0,0,0,1.65,1.11,27.1,27.1,0,0,0,2.76.95,28.73,28.73,0,0,1,3.54,1.26,6.48,6.48,0,0,1,2.34,1.82,4.8,4.8,0,0,1,1,3.12,5,5,0,0,1-2.17,4.37,9.36,9.36,0,0,1-5.44,1.51,13.07,13.07,0,0,1-4.43-.77,9.83,9.83,0,0,1-3.58-2.17l1.09-1.94a10.18,10.18,0,0,0,3.24,2,10.54,10.54,0,0,0,3.8.72,6.25,6.25,0,0,0,3.49-.88,2.89,2.89,0,0,0,1.35-2.58,2.68,2.68,0,0,0-.69-1.91,4.65,4.65,0,0,0-1.71-1.17c-.68-.28-1.63-.61-2.84-1a27.71,27.71,0,0,1-3.46-1.25,6,6,0,0,1-2.26-1.75,4.65,4.65,0,0,1-.92-3,4.72,4.72,0,0,1,2.07-4.18,9,9,0,0,1,5.17-1.41,12.82,12.82,0,0,1,3.51.48,11.2,11.2,0,0,1,3,1.33L770.89,181A10.34,10.34,0,0,0,768.19,179.83Z" style="fill: rgb(255, 255, 255);"/>
      <path d="M795.89,178.55a9.72,9.72,0,0,1,3.79,3.76,11,11,0,0,1,1.37,5.48,11.12,11.12,0,0,1-1.37,5.53,9.66,9.66,0,0,1-3.79,3.79,11.78,11.78,0,0,1-10.95,0,9.73,9.73,0,0,1-3.79-3.79,11.11,11.11,0,0,1-1.36-5.53,11,11,0,0,1,1.36-5.48,9.78,9.78,0,0,1,3.79-3.76,11.78,11.78,0,0,1,10.95,0Zm-9.58,2a7.26,7.26,0,0,0-2.82,2.94,9,9,0,0,0-1,4.31,9.18,9.18,0,0,0,1,4.35,7.17,7.17,0,0,0,2.82,2.93,8.55,8.55,0,0,0,8.21,0,7.17,7.17,0,0,0,2.82-2.93,9.18,9.18,0,0,0,1-4.35,9,9,0,0,0-1-4.31,7.26,7.26,0,0,0-2.82-2.94,8.55,8.55,0,0,0-8.21,0Z" style="fill: rgb(255, 255, 255);"/>
      <path d="M814.37,171.76a4.21,4.21,0,0,0-1.15,3.1v3h6.2V180h-6.2v18.41h-2.7V180h-2.7v-2.13h2.7v-2.66a7.45,7.45,0,0,1,.89-3.68,6.25,6.25,0,0,1,2.37-2.44,6.45,6.45,0,0,1,3.22-.84,7.54,7.54,0,0,1,3.71,1l-.69,2.18a6,6,0,0,0-2.81-.77A3.81,3.81,0,0,0,814.37,171.76Z" style="fill: rgb(255, 255, 255);"/>
      <path d="M838.72,196.93a8.68,8.68,0,0,1-4.67,1.57,5,5,0,0,1-3.82-1.49,6.31,6.31,0,0,1-1.41-4.47V180h-3l0-2.09h3.06v-5.43h2.69v5.43l6.85,0V180h-6.85v12.12q0,3.91,2.91,3.91a7,7,0,0,0,3.5-1.13Z" style="fill: rgb(255, 255, 255);"/>
      <path d="M844.78,177.28h2.89l6.49,18.4,6.4-18.4h2.86l6.44,18.4,6.44-18.4h2.82l-7.89,21.1h-2.82L862,180.54l-6.44,17.84h-2.82Z" style="fill: rgb(255, 255, 255);"/>
      <path d="M899.91,198.38l0-3.55a7.59,7.59,0,0,1-3.26,2.76,11.28,11.28,0,0,1-4.63.91,8.24,8.24,0,0,1-3.77-.83,6,6,0,0,1-3.4-5.54,5.05,5.05,0,0,1,2.11-4.3,9.55,9.55,0,0,1,5.82-1.57h7.09v-1.61a5,5,0,0,0-1.49-3.87,6.23,6.23,0,0,0-4.35-1.37,11.45,11.45,0,0,0-6.81,2.54L886,180.1a17.81,17.81,0,0,1,4.06-2.2,12.91,12.91,0,0,1,4.43-.7,8.43,8.43,0,0,1,5.92,1.91,6.92,6.92,0,0,1,2.14,5.29l0,14Zm-2.68-3.45a6.44,6.44,0,0,0,2.64-3.68v-2.9h-6.81a7.84,7.84,0,0,0-4.22.93,3.05,3.05,0,0,0-1.45,2.77,3.74,3.74,0,0,0,1.38,3,5.6,5.6,0,0,0,3.69,1.15A8.31,8.31,0,0,0,897.23,194.93Z" style="fill: rgb(255, 255, 255);"/>
      <path d="M918.71,178.51a8.55,8.55,0,0,1,4.69-1.31v2.53a7.26,7.26,0,0,0-5.38,2,8.24,8.24,0,0,0-2.31,5.41v11.28H913v-21.1h2.7v4.91A8.07,8.07,0,0,1,918.71,178.51Z" style="fill: rgb(255, 255, 255);"/>
      <path d="M946.62,180.32q2.58,3.12,2.38,8.39H931.4a8.09,8.09,0,0,0,2.5,5.46,7.7,7.7,0,0,0,5.47,2.07,9.71,9.71,0,0,0,3.75-.72,8.75,8.75,0,0,0,3-2.06l1.53,1.53a10.46,10.46,0,0,1-3.69,2.56,12.12,12.12,0,0,1-4.73.91,10.78,10.78,0,0,1-5.43-1.35,9.66,9.66,0,0,1-3.73-3.77,11.9,11.9,0,0,1,0-11,9.62,9.62,0,0,1,3.73-3.78,10.61,10.61,0,0,1,5.35-1.35C942.41,177.2,944.9,178.24,946.62,180.32Zm0,6.3a7.73,7.73,0,0,0-2.2-5.26,7.11,7.11,0,0,0-5.21-2,7.54,7.54,0,0,0-5.31,2,7.87,7.87,0,0,0-2.46,5.24Z" style="fill: rgb(255, 255, 255);"/>
      <path class="cls-1" d="M0,115.72v-5.8a3.18,3.18,0,0,0,.14-.61c.12-1.39.24-2.78.32-4.17A113,113,0,0,1,1.9,92.69,98.66,98.66,0,0,1,9.15,68.75C17.7,49.87,31,35.44,49.51,26c.14-.07.26-.17.42-.27a16.49,16.49,0,0,0-2.87-6.3,16.68,16.68,0,0,1,7.67,4,15.72,15.72,0,0,0-1.29-4.31c-.61-1.28-1.31-2.52-2-3.89A22.4,22.4,0,0,1,60.94,21a29.63,29.63,0,0,0-3.6-10.67,29,29,0,0,1,11.72,7.93,20.7,20.7,0,0,0-.1-4.41,34.62,34.62,0,0,0-1.73-7.09c-.07-.22-.12-.44-.23-.84A31.24,31.24,0,0,1,78.6,17.37,97.24,97.24,0,0,1,96.67,17c0-5.75,0-11.37.06-17h.16a1,1,0,0,0,.28.14,176.5,176.5,0,0,1,21.17,6A116.58,116.58,0,0,1,141.68,17.2a75.45,75.45,0,0,1,31.39,38.09,111.61,111.61,0,0,1,6.38,29c.43,4.49.64,9,.67,13.5.06,7.64-.09,15.28-.69,22.91,0,.42-.1.83-.15,1.28H160.13c-2.1,0-4.21,0-6.3,0l-.51,5,.57,0a53.69,53.69,0,0,1,18,3.24,6,6,0,0,1,2.29,1.29,2,2,0,0,1,0,3.14,5.87,5.87,0,0,1-2.08,1.2,14.66,14.66,0,0,1-3.78.69,163.1,163.1,0,0,1-17.68.57c-1.32,0-2.63-.13-3.94-.17a1.56,1.56,0,0,1-1.37-.68c-.39-.54-.86-1-1.27-1.56a40.88,40.88,0,0,1-6.23-12c-.09-.27-.2-.53-.31-.82H74.86a1.7,1.7,0,0,0-1.34.54c-3.57,3.6-7.16,7.17-10.75,10.76-.16.16-.3.34-.51.57a1.5,1.5,0,0,0,.33,0,13.88,13.88,0,0,1,6.82-.6,24.9,24.9,0,0,1,12.22,5.35,10.67,10.67,0,0,1,3.25,4.24,5.33,5.33,0,0,1,.44,2.43A2.34,2.34,0,0,1,83,147.57a3.17,3.17,0,0,1-1.19-.1,18.2,18.2,0,0,1-2.69-1,38.82,38.82,0,0,0-5.8-2.55,38.46,38.46,0,0,0-20.24-1c-.94.19-1.87.4-2.79.6-.08-.13-.14-.19-.17-.26-.08-.23-.15-.46-.22-.69a18.77,18.77,0,0,1-.4-8.13A35.57,35.57,0,0,1,51.9,126c.11-.26.21-.52.34-.88l-.58.14c-1.72.5-3.44,1-5.17,1.5a20.65,20.65,0,0,1-13.26-.66,3.8,3.8,0,0,0-.49-.13,6.3,6.3,0,0,0,0,1.07,69.76,69.76,0,0,0,5.41,17.46A58.2,58.2,0,0,0,62.7,171.33a61.52,61.52,0,0,0,25.53,7.61,71.86,71.86,0,0,0,16.77-.59,65.15,65.15,0,0,0,19.24-6A66.73,66.73,0,0,0,146,155c.22-.27.44-.52.69-.81l21.67,18.49-.51.7a86.94,86.94,0,0,1-35.24,26.87,99.6,99.6,0,0,1-32.86,7.38A106.86,106.86,0,0,1,80.2,207a94.88,94.88,0,0,1-17.8-3.9A86.63,86.63,0,0,1,26,180.54c-12.86-13.4-20.48-29.46-23.9-47.6A117,117,0,0,1,.27,117.78C.23,117.09.09,116.4,0,115.72ZM121.49,45.45a27.19,27.19,0,1,0,27.15,27.21A27.21,27.21,0,0,0,121.49,45.45Z"/>
      <path class="cls-2" d="M133.19,78.24l-11.7-.77c-2.73-.18-5.46-.34-8.18-.55-2.41-.18-4.81-.37-7.2-.65a13.21,13.21,0,0,1-2.94-.8,2.86,2.86,0,0,1-2-2.76,3.16,3.16,0,0,1,1.68-3.22,10.6,10.6,0,0,1,3.77-1.08c2.23-.25,4.47-.44,6.71-.64,2.86-.26,5.71-.52,8.57-.76,3.47-.28,6.94-.58,10.42-.78a20.38,20.38,0,0,1,6.46.55c.29.08.56.17.84.27a4.29,4.29,0,0,1,3.1,4.23,8.92,8.92,0,0,1-.09,2A5.77,5.77,0,0,1,137.85,78a12.24,12.24,0,0,1-1.91.19C135,78.26,134,78.24,133.19,78.24Z"/>
      <path class="cls-3" d="M290.87,47.92q8.63,9.93,8.63,27.61c0,1.83,0,3.2-.13,4.12h-57.3q1.52,9.73,8.16,15.48a24.13,24.13,0,0,0,16.38,5.76,30.55,30.55,0,0,0,12-2.33A28.64,28.64,0,0,0,288.26,92l7,7.27a36.83,36.83,0,0,1-12.88,8.91,43,43,0,0,1-16.72,3.15,38.5,38.5,0,0,1-19-4.59,32.23,32.23,0,0,1-12.89-13,38.91,38.91,0,0,1-4.59-19.05,38.55,38.55,0,0,1,4.59-19,33.36,33.36,0,0,1,12.82-13A37,37,0,0,1,265.37,38Q282.23,38,290.87,47.92ZM288,69.78q-.56-9.87-6.58-15.56t-15.9-5.69q-9.6,0-16,5.76t-7.6,15.49Z" style="fill: rgb(255, 255, 255);"/>
      <path class="cls-3" d="M304.05,38.39h14.81L336.81,65,355,38.39h14.12L345.31,73.75l25.63,37.15H356L336.81,82.39,316.66,110.9H302.27l26-37.15Z" style="fill: rgb(255, 255, 255);"/>
      <path class="cls-3" d="M411.36,49.36a25.24,25.24,0,0,0-12.68,3.15,22.34,22.34,0,0,0-8.7,8.91,27.15,27.15,0,0,0-3.16,13.29A27.7,27.7,0,0,0,389.91,88a22.48,22.48,0,0,0,8.5,9,23.73,23.73,0,0,0,12.4,3.23,32.72,32.72,0,0,0,12.61-2.33,24.08,24.08,0,0,0,9.32-6.72l7.26,7.4A32.06,32.06,0,0,1,427.46,108a43,43,0,0,1-17.2,3.29,37.5,37.5,0,0,1-18.78-4.66,33,33,0,0,1-12.81-13,38.57,38.57,0,0,1-4.59-19,38.94,38.94,0,0,1,4.59-19,32.88,32.88,0,0,1,12.81-13A37.4,37.4,0,0,1,410.26,38a46,46,0,0,1,16.52,2.81A31.92,31.92,0,0,1,439,48.94l-7,8.78A28.65,28.65,0,0,0,411.36,49.36Z" style="fill: rgb(255, 255, 255);"/>
      <path class="cls-3" d="M508.38,47.92Q517,57.85,517,75.53c0,1.83,0,3.2-.14,4.12H459.59q1.5,9.73,8.15,15.48a24.13,24.13,0,0,0,16.38,5.76,30.56,30.56,0,0,0,12-2.33A28.64,28.64,0,0,0,505.78,92l7,7.27a36.83,36.83,0,0,1-12.88,8.91,43,43,0,0,1-16.73,3.15,38.55,38.55,0,0,1-19-4.59,32.2,32.2,0,0,1-12.88-13,38.8,38.8,0,0,1-4.59-19.05,38.45,38.45,0,0,1,4.59-19,33.4,33.4,0,0,1,12.81-13A37,37,0,0,1,482.89,38Q499.75,38,508.38,47.92ZM505.5,69.78q-.54-9.87-6.57-15.56T483,48.53q-9.6,0-16,5.76t-7.61,15.49Z" style="fill: rgb(255, 255, 255);"/>
      <path class="cls-3" d="M589.65,42.64a32,32,0,0,1,12.33,13,40.62,40.62,0,0,1,4.39,19.19,40.47,40.47,0,0,1-4.32,19,31.28,31.28,0,0,1-12.2,12.89,35.13,35.13,0,0,1-18,4.59,33,33,0,0,1-16.17-3.84,27.54,27.54,0,0,1-11-11v41H531.94V38.39h12.75V52.78a27.63,27.63,0,0,1,10.9-11,32.33,32.33,0,0,1,16-3.84A35.08,35.08,0,0,1,589.65,42.64Zm-8,54.28a22.64,22.64,0,0,0,8.63-9.19,28.16,28.16,0,0,0,3.09-13.29,27.49,27.49,0,0,0-3.15-13.16,23.25,23.25,0,0,0-8.64-9.18,23.68,23.68,0,0,0-12.47-3.29,24.06,24.06,0,0,0-12.54,3.29,23.07,23.07,0,0,0-8.71,9.18,27.49,27.49,0,0,0-3.15,13.16,27.64,27.64,0,0,0,3.15,13.36,23.24,23.24,0,0,0,8.71,9.12,25.54,25.54,0,0,0,25.08,0Z" style="fill: rgb(255, 255, 255);"/>
      <path class="cls-3" d="M659,106.1a31.28,31.28,0,0,1-17,5.34q-8.62,0-14-5.13t-5.34-15.56V50.59H612.43V40.86h10.28V21.4h12.88V40.86h22.2v9.73h-22.2V88.42q0,6,2.19,8.63c1.46,1.74,3.66,2.61,6.58,2.61a22.93,22.93,0,0,0,11.24-3.43Z" style="fill: rgb(255, 255, 255);"/>
      <path class="cls-3" d="M682.86,11.8a8.12,8.12,0,0,1,2.26,5.89,8.11,8.11,0,0,1-2.26,5.9,8.11,8.11,0,0,1-11.38,0,8.15,8.15,0,0,1-2.26-5.9,8.16,8.16,0,0,1,2.26-5.89,8.11,8.11,0,0,1,11.38,0Zm-12,26.59h12.74V110.9H670.87Z" style="fill: rgb(255, 255, 255);"/>
      <path class="cls-3" d="M754.83,42.64a33.51,33.51,0,0,1,13.16,13,37.69,37.69,0,0,1,4.73,19,38.07,38.07,0,0,1-4.73,19,33.42,33.42,0,0,1-13.16,13,42.4,42.4,0,0,1-38.65,0A33.58,33.58,0,0,1,703,93.7a38,38,0,0,1-4.73-19.12,37.69,37.69,0,0,1,4.73-19,33.51,33.51,0,0,1,13.16-13,42.4,42.4,0,0,1,38.65,0Zm-31.94,9.73a22.71,22.71,0,0,0-8.63,9.12,27.76,27.76,0,0,0-3.08,13.22,28.44,28.44,0,0,0,3.08,13.43,22.21,22.21,0,0,0,8.63,9.12,24.8,24.8,0,0,0,12.68,3.22,24.49,24.49,0,0,0,12.54-3.22,22.24,22.24,0,0,0,8.64-9.12,28.44,28.44,0,0,0,3.08-13.43,27.76,27.76,0,0,0-3.08-13.22,22.74,22.74,0,0,0-8.64-9.12,24.15,24.15,0,0,0-12.54-3.29A24.46,24.46,0,0,0,722.89,52.37Z" style="fill: rgb(255, 255, 255);"/>
      <path class="cls-3" d="M848,45.45q7.28,7.47,7.27,20.63V110.9H842.52V69.5q0-9.18-5.14-14.32T823.19,50q-9.72.14-15.83,6.24t-6.92,15.83V110.9H787.7V38.39h12.74V53.74Q807.7,38.26,828,38,840.74,38,848,45.45Z" style="fill: rgb(255, 255, 255);"/>
      <path class="cls-3" d="M905.7,127.07a9,9,0,0,0,7.95-3.56q2.75-3.7,2.75-10.83V38.39h12.88v76.07q0,11.24-5.41,17.34t-15.29,6.1a33.93,33.93,0,0,1-12.47-2.47l3-9.73A24.63,24.63,0,0,0,905.7,127.07ZM928.39,11.8a8.12,8.12,0,0,1,2.26,5.89,8.11,8.11,0,0,1-2.26,5.9,8.11,8.11,0,0,1-11.38,0,8.11,8.11,0,0,1-2.26-5.9A8.12,8.12,0,0,1,917,11.8a8.11,8.11,0,0,1,11.38,0Z" style="fill: rgb(255, 255, 255);"/>
      <path class="cls-3" d="M972,42.16A30.19,30.19,0,0,1,987.62,38V50.32q-11.1-.42-18,5.75t-7.81,16.59V110.9H949.11V38.39h12.75V54A26.2,26.2,0,0,1,972,42.16Z" style="fill: rgb(255, 255, 255);"/>
      <path class="cls-3" d="M997.88,98.56a7.77,7.77,0,0,1,2.12,5.62,8,8,0,0,1-2.12,5.69,7,7,0,0,1-5.28,2.26,7.16,7.16,0,0,1-5.35-2.26,7.85,7.85,0,0,1-2.19-5.69,7.62,7.62,0,0,1,2.19-5.62,7.29,7.29,0,0,1,5.35-2.19A7.07,7.07,0,0,1,997.88,98.56Z" style="fill: rgb(255, 255, 255);"/>
    </g>
  </g>
</svg>